<?xml version="1.0" encoding="UTF-8"?>
<svg version="1.1" xmlns="http://www.w3.org/2000/svg" width="256" height="256">
<path d="M0 0 C1.53716525 -0.00571432 3.07432626 -0.01268265 4.61148071 -0.02079773 C8.75626014 -0.03862806 12.90082669 -0.03757988 17.04563284 -0.03185534 C20.51946356 -0.02874846 23.99325428 -0.03487259 27.46707928 -0.04089409 C35.66949347 -0.05490474 43.87180342 -0.05340721 52.07421875 -0.04199219 C60.50568632 -0.0305169 68.93683558 -0.04458458 77.36826122 -0.07138866 C84.63573997 -0.09361819 91.90311933 -0.1001667 99.17062962 -0.09431225 C103.49862557 -0.09095845 107.82641761 -0.09325176 112.15438461 -0.11056328 C116.22742241 -0.12614642 120.29999246 -0.12195252 124.37301254 -0.10325813 C125.85756345 -0.09960331 127.34214991 -0.10258869 128.82666779 -0.11314392 C146.93748635 -0.23196624 161.75873512 4.97794857 174.75439453 17.63842773 C187.98242962 31.19189929 191.92043609 46.40999184 191.85766602 64.95043945 C191.86338033 66.4876047 191.87034866 68.02476572 191.87846375 69.56192017 C191.89629407 73.70669959 191.8952459 77.85126615 191.88952136 81.99607229 C191.88641448 85.46990302 191.8925386 88.94369373 191.89856011 92.41751873 C191.91257076 100.61993292 191.91107323 108.82224287 191.8996582 117.0246582 C191.88818292 125.45612577 191.9022506 133.88727503 191.92905468 142.31870067 C191.95128421 149.58617942 191.95783271 156.85355878 191.95197827 164.12106907 C191.94862447 168.44906502 191.95091777 172.77685706 191.96822929 177.10482407 C191.98381243 181.17786186 191.97961854 185.25043192 191.96092415 189.323452 C191.95726932 190.8080029 191.96025471 192.29258936 191.97080994 193.77710724 C192.08963225 211.8879258 186.87971745 226.70917457 174.21923828 239.70483398 C160.66576673 252.93286908 145.44767417 256.87087554 126.90722656 256.80810547 C125.37006131 256.81381978 123.8329003 256.82078812 122.29574585 256.8289032 C118.15096642 256.84673353 114.00639987 256.84568535 109.86159372 256.83996081 C106.387763 256.83685393 102.91397228 256.84297806 99.44014728 256.84899956 C91.2377331 256.86301021 83.03542314 256.86151268 74.83300781 256.85009766 C66.40154024 256.83862237 57.97039099 256.85269005 49.53896534 256.87949413 C42.2714866 256.90172366 35.00410724 256.90827216 27.73659694 256.90241772 C23.40860099 256.89906392 19.08080895 256.90135723 14.75284195 256.91866875 C10.67980415 256.93425189 6.6072341 256.93005799 2.53421402 256.9113636 C1.04966311 256.90770878 -0.43492334 256.91069416 -1.91944122 256.92124939 C-20.03025979 257.04007171 -34.85150855 251.8301569 -47.84716797 239.16967773 C-61.07520306 225.61620618 -65.01320953 210.39811363 -64.95043945 191.85766602 C-64.95615377 190.32050077 -64.9631221 188.78333975 -64.97123718 187.2461853 C-64.98906751 183.10140587 -64.98801934 178.95683932 -64.9822948 174.81203318 C-64.97918791 171.33820245 -64.98531204 167.86441174 -64.99133354 164.39058673 C-65.0053442 156.18817255 -65.00384667 147.98586259 -64.99243164 139.78344727 C-64.98095636 131.35197969 -64.99502403 122.92083044 -65.02182811 114.4894048 C-65.04405764 107.22192605 -65.05060615 99.95454669 -65.0447517 92.6870364 C-65.04139791 88.35904045 -65.04369121 84.03124841 -65.06100273 79.7032814 C-65.07658587 75.63024361 -65.07239198 71.55767355 -65.05369759 67.48465347 C-65.05004276 66.00010257 -65.05302814 64.51551611 -65.06358337 63.03099823 C-65.18240569 44.92017967 -59.97249089 30.0989309 -47.31201172 17.10327148 C-33.75854016 3.87523639 -18.54044761 -0.06277007 0 0 Z " fill="#5956E9" transform="translate(64.54638671875,-0.404052734375)"/>
<path d="M0 0 C-0.38691794 5.67479643 -2.22358184 10.114498 -4.48046875 15.3046875 C-6.30948077 19.75261905 -7.87781119 24.26458629 -9.4375 28.8125 C-11.5444352 34.93973558 -13.73202548 41.00348929 -16.1875 47 C-17.96909394 51.35972061 -19.61324593 55.7064064 -21.0625 60.1875 C-23.04404643 66.27952705 -25.37749511 72.15602305 -28 78 C-28.35578125 78.82757813 -28.7115625 79.65515625 -29.078125 80.5078125 C-32.80262287 88.24532569 -38.6553005 92.43108074 -46.65625 95.3203125 C-55.72596154 98 -55.72596154 98 -60 98 C-57.64894012 89.41415894 -54.55104525 81.11744882 -51.43920898 72.78637695 C-50.56366516 70.44062169 -49.69459657 68.09253944 -48.82617188 65.74414062 C-46.33009688 59.02266369 -43.81208162 52.36273031 -40.81176758 45.84643555 C-39.50155639 42.8662469 -38.54213423 39.78911011 -37.5625 36.6875 C-29.31903932 11.28274057 -29.31903932 11.28274057 -18 5 C-6.07566862 0 -6.07566862 0 0 0 Z " fill="#FBFBFE" transform="translate(193,90)"/>
<path d="M0 0 C-0.86051032 3.74134921 -2.05018157 7.354982 -3.25 11 C-3.64703125 12.216875 -4.0440625 13.43375 -4.453125 14.6875 C-5.62050481 18.07139805 -6.96450401 21.35826034 -8.35546875 24.65625 C-11.1158165 31.20295186 -13.60891729 37.83323277 -16.0625 44.5 C-16.48337891 45.63308594 -16.90425781 46.76617187 -17.33789062 47.93359375 C-19.34563007 53.36849773 -21.28316136 58.80996772 -23.07421875 64.3203125 C-30.11772049 85.64632376 -30.11772049 85.64632376 -38.80078125 90.96875 C-45.63485764 94.17336131 -52.65154479 96.33619882 -60 98 C-59.42277372 93.9763933 -58.54818328 90.3848005 -57.109375 86.5859375 C-56.73200195 85.58361084 -56.35462891 84.58128418 -55.96582031 83.54858398 C-55.56459961 82.50130127 -55.16337891 81.45401855 -54.75 80.375 C-54.34104492 79.29484619 -53.93208984 78.21469238 -53.51074219 77.10180664 C-51.16552683 70.9393295 -48.71359084 64.84751576 -46.11328125 58.7890625 C-44.48413424 54.70762051 -43.15558097 50.53229962 -41.80371094 46.35327148 C-40.45583994 42.23165177 -38.87906478 38.35306855 -37.0234375 34.44140625 C-35.9246217 31.82018535 -35.0829415 29.15406841 -34.24731445 26.43920898 C-31.03745328 16.11451234 -27.38639202 9.61506183 -17.73046875 4.25390625 C-12.00364651 1.62399218 -6.30664082 0 0 0 Z " fill="#FBFBFE" transform="translate(123,68)"/>
<path d="M0 0 C-1.73600243 6.37945608 -3.94221097 12.38335824 -6.54296875 18.45703125 C-8.33168425 22.80653515 -9.95115934 27.20733402 -11.5625 31.625 C-12.16517745 33.26959984 -12.7680368 34.91413303 -13.37109375 36.55859375 C-13.79430908 37.71270752 -13.79430908 37.71270752 -14.22607422 38.89013672 C-21.82727661 59.61240518 -21.82727661 59.61240518 -31 64 C-44.22637518 69 -44.22637518 69 -50 69 C-47.98436853 61.64471323 -45.38775459 54.54360081 -42.671875 47.42578125 C-41.50120049 44.35172283 -40.37107496 41.26607264 -39.265625 38.16796875 C-29.41397762 10.61943869 -29.41397762 10.61943869 -21 6 C-6.67752812 -0.54563459 -6.67752812 -0.54563459 0 0 Z " fill="#FBFBFE" transform="translate(138,134)"/>
<path d="M0 0 C-0.69192713 2.0757814 -1.38423434 4.15143665 -2.078125 6.2265625 C-2.71972801 8.15680886 -3.35465039 10.08928333 -3.984375 12.0234375 C-5.77051853 17.47804504 -7.73844143 22.72303 -10 28 C-10.63706716 29.89181248 -11.26072583 31.78816426 -11.875 33.6875 C-19.75894749 57.67034789 -19.75894749 57.67034789 -30 64 C-36.25925464 66.91214047 -43.06280581 70 -50 70 C-49.81751709 69.45472656 -49.63503418 68.90945312 -49.44702148 68.34765625 C-48.12913788 64.40285595 -46.81973846 60.45578065 -45.53515625 56.5 C-40.99437617 42.58730523 -40.99437617 42.58730523 -37.859375 35.99609375 C-36.8806078 33.72268447 -36.223837 31.44698731 -35.5625 29.0625 C-32.69293061 19.2695251 -28.66706842 11.77804561 -20 6 C-16.41553097 4.30845282 -12.80571944 3.0906285 -9 2 C-8.27941406 1.77570312 -7.55882812 1.55140625 -6.81640625 1.3203125 C-4.50799045 0.61962912 -2.42512964 0 0 0 Z " fill="#FBFBFE" transform="translate(168,53)"/>
</svg>
